# xmcd
#
# Track frame offsets:
#	150
#	23422
#	43560
#	66452
#	82902
#	105410
#	127770
#	149360
#	167860
#	187677
#	213187
#	233037
#
# Disc length: 3402 seconds
#
# Revision: 4
# Processed by: cddbd v1.5.2PL0 Copyright (c) Steve Scherf et al.
# Submitted via: EasyCDDAExtractor 16.0.6.1
#
DISCID=8e0d480c
DTITLE=齐秦 - 呼唤
DYEAR=2002
DGENRE=Pop
TTITLE0=真的是我
TTITLE1=Sophia
TTITLE2=呼唤
TTITLE3=其实都是一样
TTITLE4=少了自己
TTITLE5=野衣裳
TTITLE6=协议分手
TTITLE7=受保护
TTITLE8=1945
TTITLE9=七匹狼
TTITLE10=在第六对相遇
TTITLE11=©I³ê(Additional Version)
EXTD=YEAR: 2002 ID3G:  13
EXTT0=
EXTT1=
EXTT2=
EXTT3=
EXTT4=
EXTT5=
EXTT6=
EXTT7=
EXTT8=
EXTT9=
EXTT10=
EXTT11=
PLAYORDER=
